<?xml version="1.0" encoding="UTF-8"?>
<!DOCTYPE svg PUBLIC "-//W3C//DTD SVG 1.1//EN" "http://www.w3.org/Graphics/SVG/1.1/DTD/svg11.dtd">
<!-- Creator: CorelDRAW -->
<svg xmlns="http://www.w3.org/2000/svg" xml:space="preserve" width="13.9421cm" height="13.9421cm" version="1.1" style="shape-rendering:geometricPrecision; text-rendering:geometricPrecision; image-rendering:optimizeQuality; fill-rule:evenodd; clip-rule:evenodd"
viewBox="0 0 1878.43 1878.43"
 xmlns:xlink="http://www.w3.org/1999/xlink"
 xmlns:xodm="http://www.corel.com/coreldraw/odm/2003">
 <defs>
  <style type="text/css">
   <![CDATA[
    .fil6 {fill:none}
    .fil5 {fill:black}
    .fil2 {fill:#569590}
    .fil1 {fill:#DD482F}
    .fil3 {fill:#EBAF28}
    .fil0 {fill:white}
    .fil4 {fill:black;fill-rule:nonzero}
   ]]>
  </style>
   <clipPath id="id0">
    <path d="M939.21 0c518.71,0 939.21,420.5 939.21,939.21 0,518.71 -420.5,939.21 -939.21,939.21 -518.71,0 -939.21,-420.5 -939.21,-939.21 0,-518.71 420.5,-939.21 939.21,-939.21z"/>
   </clipPath>
 </defs>
 <g id="TEXTS">
  <metadata id="CorelCorpID_0Corel-Layer"/>
  <path class="fil0" d="M939.21 0c518.71,0 939.21,420.5 939.21,939.21 0,518.71 -420.5,939.21 -939.21,939.21 -518.71,0 -939.21,-420.5 -939.21,-939.21 0,-518.71 420.5,-939.21 939.21,-939.21z"/>
  <g style="clip-path:url(#id0)">
   <g id="_2313665647088">
    <g>
     <path id="_1" class="fil1" d="M657.99 1340.53l181.89 0 125.45 -891.1 -91.41 891.1 23.92 0 104.34 -913.06 33.49 10.45 5.31 -48.77 -59.79 -22.93c-47.67,-18.28 -105.62,-7.65 -145.31,9.74 -30.52,13.37 -71.18,30.65 -75.77,70.83l-102.13 893.74z"/>
     <path class="fil2" d="M558.12 1340.53l91.92 -652.94 -66.98 652.94 26.7 0 77.12 -674.9 33.49 10.45 5.31 -48.77 -59.79 -22.93c-47.67,-18.28 -105.62,-7.65 -145.31,9.74 -30.52,13.37 -71.18,30.65 -75.77,70.83l-74.91 655.58 188.21 0z"/>
     <path class="fil3" d="M1777.57 347.87l-461.7 -137.71 -3.21 28.45c31.58,20.61 41.14,37.57 41.14,37.57l-4.78 -2.1 -0.05 -0.02 -4.13 -1.76 -0.58 -0.25 -0.1 -0.04 -0.1 -0.04 -4.01 -1.66 -0.53 -0.21 -0.16 -0.06 -0.06 -0.03 -3.35 -1.34 -0.68 -0.27 -0.47 -0.19 -0.21 -0.08 -0.02 -0.01 -4.06 -1.57 -0.42 -0.16 -0.26 -0.1 -3.39 -1.26 -0.68 -0.25 -0.36 -0.13 -0.31 -0.11 -0.11 -0.04 -2.59 -0.93 -0.68 -0.24 -0.67 -0.24 -0.68 -0.24 -0.67 -0.23 -0.67 -0.23 -1.34 -0.46 -0.67 -0.23 -0.67 -0.23 -0.67 -0.22 -0.67 -0.22 -0.67 -0.22 -1.34 -0.44 -0.67 -0.22 -0.18 -0.06 -1.15 -0.37 -0.67 -0.21c-84.3,-26.7 -159.22,-16.11 -222.41,40.8 0,0 130.75,-49.69 218.18,-3.26l-20.26 179.8c29.43,19.8 38.44,35.79 38.44,35.79l-4.52 -1.99 -0.26 -0.11 -0.38 -0.16 -3.86 -1.65 -0.52 -0.22 -0.12 -0.05 -0.64 -0.27 -3.2 -1.32 -0.64 -0.26 -0.14 -0.06 -0.49 -0.2 -0.64 -0.26 -3.19 -1.27 -0.4 -0.16 -0.23 -0.09 -0.64 -0.25 -3.17 -1.22 -0.64 -0.24 -0.03 -0.01 -0.61 -0.23 -3.17 -1.18 -0.63 -0.23 -0.28 -0.11 -0.35 -0.13 -0.63 -0.23 -0.63 -0.23 -1.89 -0.68 -0.63 -0.22 -0.54 -0.19 -0.09 -0.03 -0.63 -0.22 -0.14 -0.05 -1.75 -0.6 -0.63 -0.21 -0.63 -0.21 -0.63 -0.21 -1.16 -0.38 -0.1 -0.03 -0.63 -0.21 -1.25 -0.41 0 0c-85.46,-27.83 -161.31,-17.66 -225.22,39.9 0,0 132.78,-50.47 220.19,-2.19l0.82 -0.39 -21.51 190.89c36.36,22.28 47.12,41.35 47.12,41.35l-4.75 -2.09 -0.03 -0.01 -4.67 -1.99 -0.02 -0.01 -0.07 -0.03 -0.72 -0.3 -3.14 -1.3 -0.78 -0.32 -0.11 -0.04 -0.01 -0c-1.46,-0.59 -2.92,-1.17 -4.37,-1.74l-0.21 -0.08 -0.13 -0.06 -0.65 -0.25 -3.89 -1.5 -0.17 -0.07 -0.61 -0.23 -3.11 -1.15 -0.77 -0.28 -0.77 -0.28 -0.77 -0.28 -2.32 -0.83 -0.77 -0.27 -0.77 -0.27 -0.77 -0.27 -0.77 -0.27 -0.77 -0.26 -0.77 -0.26 -0.77 -0.26 -1.43 -0.48 -0.11 -0.04 -0.77 -0.25 -0.77 -0.25 -0.76 -0.25 -2.29 -0.73 -0.76 -0.24 -0.76 -0.24 -0.76 -0.24 -3.05 -0.92 -0.76 -0.23c-81.79,-24.25 -154.55,-12.83 -216.22,42.7 0,0 124.84,-47.46 212.12,-6.31l-25.93 230.1c28.58,19.46 37.37,35.06 37.37,35.06l-4.39 -1.93 -0.39 -0.17 -0.24 -0.11 -3.75 -1.6 -0.63 -0.27 -0.15 -0.06 -0.48 -0.2c-1.43,-0.6 -2.85,-1.19 -4.27,-1.76l-0.09 -0.04 -3.72 -1.49 -0.62 -0.25 -0.3 -0.11 -0.32 -0.13 -4.3 -1.65 -0.03 -0.01 -0.06 -0.02 -0.56 -0.21 -3.7 -1.37 -0.44 -0.16 -0.18 -0.06 -0.61 -0.22 -3.07 -1.09 -0.61 -0.22 -0.2 -0.07 -0.41 -0.14 -3.06 -1.05 -0.61 -0.21 -0.1 -0.03 -1.22 -0.41 -1.12 -0.37 0 0c-85.9,-28.28 -162.14,-18.26 -226.32,39.54 0,0 132.78,-50.47 220.19,-2.19l2.03 -0.97 -19.58 173.7c32.75,21.04 42.6,38.52 42.6,38.52l-4.29 -1.89 -0.49 -0.21 -0.23 -0.1 -4.27 -1.82 -0.27 -0.11 -0.45 -0.19 -3.55 -1.47 -0.71 -0.29 -0.04 -0.02 -0.67 -0.27 -3.53 -1.41 -0.52 -0.21 -0.18 -0.07 -0.7 -0.28 -2.82 -1.08 -0.7 -0.27 -0.3 -0.11 -0.4 -0.15 -0.7 -0.26 -2.81 -1.04 -1.3 -0.48 -3.69 -1.31 -1.13 -0.39 -3.18 -1.09 -1.15 -0.39 -0.7 -0.23 -1.39 -0.46 -0.69 -0.23 -0.69 -0.23 -0.2 -0.06 -1.19 -0.38 -0.69 -0.22 -0.69 -0.22 -0.69 -0.22c-83.68,-26.09 -158.08,-15.31 -220.9,41.28 0,0 129.29,-49.14 216.7,-4.04l-4.26 37.82 -239.84 0 129.03 -1108.74c4.67,-40.17 45.24,-57.46 75.77,-70.83 39.69,-17.39 98.08,-29.14 145.31,-9.74l478.84 196.65z"/>
    </g>
    <g>
     <path class="fil4" d="M669.38 1675.71l-57.21 0 -12.56 25.42 -46.68 0 74.44 -132.48 52.19 0 43.82 132.48 -46.92 0 -7.07 -25.42zm-42.95 -28.39l35.19 0 -12.36 -45.64 -22.83 45.64z"/>
     <path id="_1_0" class="fil4" d="M784.88 1655.4c-0.13,2.26 -0.05,4.3 0.24,6.15 0.75,4.86 2.79,8.69 6.1,11.53 3.32,2.88 7.69,4.3 13.12,4.3 4.79,0 8.73,-1.05 11.84,-3.15 3.1,-2.13 5.48,-4.76 7.15,-7.92 1.66,-3.19 2.71,-6.68 3.15,-10.55 0.44,-3.83 0.39,-7.51 -0.15,-10.98 -1.79,-11.53 -8.12,-17.32 -18.97,-17.32 -6.38,0 -11.44,1.86 -15.17,5.6 -3.73,3.71 -5.85,8.57 -6.36,14.5l-0.94 7.82zm33.22 48.89c-8.14,0 -15.49,-1.36 -22.06,-4.08 -6.57,-2.72 -11.92,-6.62 -16.06,-11.69l-1.39 12.62 -41.89 0 15.55 -132.48 43.33 0 -5.24 44.81c3.42,-3.68 7.89,-6.74 13.41,-9.22 5.53,-2.44 12.12,-3.68 19.78,-3.68 12.77,0 23.25,3.52 31.45,10.58 8.2,7.05 13.31,17.07 15.33,30.06 1.33,8.53 1.07,16.61 -0.78,24.21 -1.85,7.61 -5.04,14.29 -9.57,20.04 -4.53,5.75 -10.36,10.33 -17.49,13.73 -7.13,3.4 -15.25,5.1 -24.34,5.1z"/>
     <path id="_2" class="fil4" d="M951.64 1624.5c-5.43,0 -10.02,1.27 -13.77,3.8 -3.76,2.54 -6.28,6.83 -7.57,12.9l39.74 0c0.23,-1.61 0.23,-3.15 -0,-4.64 -0.6,-3.83 -2.53,-6.8 -5.81,-8.91 -3.28,-2.1 -7.47,-3.15 -12.58,-3.15zm57.99 35.81l-80.44 0c1.1,7.05 3.44,12.09 7.02,15.12 3.58,3.03 8.73,4.55 15.43,4.55 4.79,0 8.58,-0.77 11.37,-2.32 2.79,-1.55 4.62,-4.17 5.48,-7.88l40.7 0c-1.34,10.88 -6.93,19.33 -16.77,25.33 -9.84,6 -23.14,9 -39.9,9 -18.35,0 -33.13,-3.71 -44.34,-11.13 -11.21,-7.42 -17.94,-18.37 -20.19,-32.84 -1.29,-8.29 -0.82,-16.05 1.41,-23.29 2.23,-7.24 5.99,-13.54 11.3,-18.92 5.31,-5.38 12.11,-9.59 20.42,-12.62 8.31,-3.03 17.89,-4.55 28.74,-4.55 9.1,0 17.17,1.08 24.2,3.25 7.04,2.17 13.04,5.1 18.01,8.81 4.97,3.71 8.92,8.1 11.86,13.17 2.94,5.07 4.86,10.45 5.74,16.14 0.6,3.83 0.73,7.79 0.41,11.88l-0.46 6.31z"/>
     <path id="_3" class="fil4" d="M1117.86 1631.74c-1.97,-0.37 -4.01,-0.68 -6.13,-0.93 -2.11,-0.25 -4.61,-0.37 -7.48,-0.37 -10.05,0 -17.47,2.07 -22.25,6.22 -4.78,4.14 -7.57,9.8 -8.37,16.98l-5.54 47.5 -43.33 0 11.43 -97.41 42.13 0 -1.48 12.06c8.77,-9.28 20.26,-13.91 34.47,-13.91 2.71,0 5.05,0.12 7,0.37 1.95,0.25 3.92,0.56 5.89,0.93l-6.33 28.57z"/>
     <path id="_4" class="fil4" d="M1189.31 1629.88l-4.09 33.77c-0.16,0.99 -0.26,1.92 -0.28,2.78 -0.02,0.86 0.02,1.67 0.14,2.41 0.39,2.47 1.52,4.36 3.39,5.66 1.88,1.3 4.81,1.95 8.8,1.95 2.08,0 4.17,-0.12 6.29,-0.37 2.12,-0.25 4.1,-0.56 5.96,-0.93l8.54 24.12c-3.98,1.11 -8.67,1.98 -14.08,2.6 -5.41,0.62 -10.99,0.93 -16.73,0.93 -13.17,0 -23.71,-2.1 -31.58,-6.31 -7.88,-4.2 -12.5,-10.82 -13.9,-19.85 -0.58,-3.71 -0.61,-7.54 -0.11,-11.5l4.09 -35.25 -20.11 0 3.11 -26.16 20.23 0 3 -25.61 43.41 0 -2.96 25.61 27.29 0 -3.11 26.16 -27.29 0z"/>
     <path id="_5" class="fil4" d="M1265.83 1703.73c-11.01,0 -20.28,-2.35 -27.79,-7.05 -7.51,-4.7 -11.93,-11.32 -13.26,-19.85 -1.02,-6.56 0.15,-12.09 3.52,-16.61 3.37,-4.51 8.12,-8.07 14.26,-10.67 6.14,-2.6 13.18,-4.51 21.13,-5.75 7.95,-1.24 15.97,-1.98 24.07,-2.23l18.56 -0.74 0.26 -2.97c0.06,-0.62 0.09,-1.21 0.08,-1.76 -0.01,-0.56 -0.06,-1.15 -0.15,-1.76 -0.48,-3.09 -2.06,-5.53 -4.73,-7.33 -2.67,-1.79 -6.56,-2.69 -11.67,-2.69 -4.79,0 -8.49,0.8 -11.12,2.41 -2.62,1.61 -4.4,4.02 -5.34,7.24l-38.68 -2.41c1.09,-9.4 6.47,-16.88 16.14,-22.45 9.67,-5.57 22.88,-8.35 39.64,-8.35 16.6,0 29.64,2.78 39.12,8.35 9.49,5.57 15.03,13.54 16.65,23.93 0.29,1.86 0.48,3.83 0.56,5.94 0.09,2.1 -0.02,4.21 -0.34,6.31l-6.64 55.85 -39.74 0 1.2 -10.76c-4.59,4.33 -9.75,7.64 -15.45,9.93 -5.71,2.29 -12.47,3.43 -20.29,3.43zm38.2 -43.79l-13.08 0.56c-10.14,0.49 -17.17,1.73 -21.09,3.71 -3.92,1.98 -5.59,4.82 -5.02,8.54 0.39,2.47 1.65,4.42 3.78,5.84 2.14,1.42 5.44,2.13 9.91,2.13 6.07,0 11.29,-1.3 15.67,-3.9 2.2,-1.24 4.18,-2.88 5.94,-4.92 1.76,-2.04 2.86,-4.67 3.32,-7.89l0.56 -4.08z"/>
     <polygon class="fil4" points="430.65,1542.84 408.33,1470.22 399.87,1542.84 360.37,1542.84 375.29,1415.75 424.67,1415.75 450.76,1500.83 495.63,1415.75 547.99,1415.75 533.08,1542.84 492.65,1542.84 501.09,1470.04 462.8,1542.84 "/>
     <path id="_1_1" class="fil4" d="M614.31 1469.32c-5.21,0 -9.61,1.22 -13.21,3.65 -3.6,2.43 -6.02,6.56 -7.26,12.37l38.12 0c0.22,-1.54 0.22,-3.03 -0,-4.45 -0.57,-3.68 -2.43,-6.53 -5.58,-8.54 -3.15,-2.02 -7.17,-3.03 -12.07,-3.03zm55.64 34.35l-77.16 0c1.05,6.76 3.3,11.6 6.73,14.51 3.44,2.91 8.37,4.36 14.8,4.36 4.59,0 8.23,-0.74 10.91,-2.22 2.68,-1.48 4.43,-4.01 5.26,-7.57l39.04 0c-1.29,10.44 -6.65,18.54 -16.09,24.3 -9.44,5.76 -22.2,8.63 -38.27,8.63 -17.61,0 -31.79,-3.56 -42.54,-10.68 -10.75,-7.12 -17.21,-17.62 -19.37,-31.51 -1.24,-7.95 -0.79,-15.4 1.35,-22.34 2.13,-6.94 5.75,-12.99 10.84,-18.16 5.09,-5.16 11.62,-9.2 19.59,-12.1 7.97,-2.91 17.16,-4.36 27.57,-4.36 8.73,0 16.47,1.04 23.22,3.11 6.75,2.08 12.51,4.89 17.28,8.45 4.76,3.56 8.56,7.77 11.38,12.64 2.82,4.87 4.66,10.03 5.51,15.49 0.57,3.68 0.7,7.48 0.39,11.39l-0.44 6.05z"/>
     <path id="_2_2" class="fil4" d="M751.71 1542.84l6.55 -55.36c0.16,-0.95 0.24,-1.87 0.26,-2.76 0.01,-0.89 -0.05,-1.81 -0.2,-2.76 -0.41,-2.61 -1.58,-4.75 -3.52,-6.41 -1.94,-1.66 -4.9,-2.49 -8.88,-2.49 -2.91,0 -5.53,0.41 -7.85,1.24 -2.32,0.83 -4.25,1.72 -5.79,2.67 -1.94,1.31 -3.5,2.85 -4.68,4.63 -1.18,1.78 -1.95,3.92 -2.33,6.41l-6.41 54.82 -41.57 0 10.96 -93.45 40.42 0 -1.27 11.04c8.67,-9.26 20.12,-13.88 34.36,-13.88 5.67,0 10.75,0.71 15.26,2.14 4.51,1.42 8.33,3.35 11.46,5.79 3.14,2.43 5.65,5.28 7.53,8.54 1.89,3.26 3.15,6.97 3.8,11.12 0.52,3.32 0.59,6.76 0.23,10.32l-6.77 58.38 -41.57 0z"/>
     <path id="_3_3" class="fil4" d="M866.35 1474.49l-3.92 32.39c-0.16,0.95 -0.25,1.84 -0.27,2.67 -0.03,0.83 0.02,1.6 0.13,2.31 0.37,2.37 1.46,4.18 3.26,5.43 1.8,1.25 4.62,1.87 8.44,1.87 1.99,0 4,-0.12 6.03,-0.36 2.03,-0.24 3.94,-0.53 5.72,-0.89l8.19 23.14c-3.81,1.07 -8.32,1.9 -13.51,2.49 -5.19,0.59 -10.54,0.89 -16.05,0.89 -12.63,0 -22.74,-2.02 -30.3,-6.05 -7.56,-4.03 -11.99,-10.38 -13.34,-19.05 -0.55,-3.56 -0.59,-7.24 -0.11,-11.04l3.93 -33.82 -19.29 0 2.99 -25.1 19.41 0 2.88 -24.56 41.65 0 -2.84 24.56 26.18 0 -2.99 25.1 -26.18 0z"/>
     <path id="_4_4" class="fil4" d="M957.53 1469.32c-5.21,0 -9.61,1.22 -13.21,3.65 -3.6,2.43 -6.02,6.56 -7.26,12.37l38.12 0c0.22,-1.54 0.22,-3.03 -0,-4.45 -0.57,-3.68 -2.43,-6.53 -5.58,-8.54 -3.15,-2.02 -7.17,-3.03 -12.07,-3.03zm55.64 34.35l-77.16 0c1.05,6.76 3.3,11.6 6.73,14.51 3.44,2.91 8.37,4.36 14.8,4.36 4.59,0 8.23,-0.74 10.91,-2.22 2.68,-1.48 4.43,-4.01 5.26,-7.57l39.04 0c-1.29,10.44 -6.65,18.54 -16.09,24.3 -9.44,5.76 -22.2,8.63 -38.27,8.63 -17.61,0 -31.79,-3.56 -42.54,-10.68 -10.75,-7.12 -17.21,-17.62 -19.37,-31.51 -1.24,-7.95 -0.79,-15.4 1.35,-22.34 2.13,-6.94 5.75,-12.99 10.84,-18.16 5.09,-5.16 11.62,-9.2 19.59,-12.1 7.97,-2.91 17.16,-4.36 27.57,-4.36 8.73,0 16.47,1.04 23.22,3.11 6.75,2.08 12.51,4.89 17.28,8.45 4.76,3.56 8.56,7.77 11.38,12.64 2.82,4.87 4.66,10.03 5.51,15.49 0.57,3.68 0.7,7.48 0.39,11.39l-0.44 6.05z"/>
    </g>
    <rect class="fil5" transform="matrix(1 -0 -0.23468 1 343.977 1373.68)" width="1023.78" height="8.92"/>
   </g>
  </g>
  <path class="fil6" d="M939.21 0c518.71,0 939.21,420.5 939.21,939.21 0,518.71 -420.5,939.21 -939.21,939.21 -518.71,0 -939.21,-420.5 -939.21,-939.21 0,-518.71 420.5,-939.21 939.21,-939.21z"/>
 </g>
</svg>
